<svg xmlns="http://www.w3.org/2000/svg" xmlns:xlink="http://www.w3.org/1999/xlink" width="291" height="353" viewBox="0 0 291 353">
    <defs>
        <path id="b" d="M108.574 153.973c-12.6 0-22.84-14.881-22.84-27.726 0-12.845 10.238-23.247 22.84-23.247 12.577 0 22.824 10.402 22.824 23.247 0 12.837-10.237 27.726-22.824 27.726zm56.35 97.593a3.64 3.64 0 0 1 3.642 3.655v55.369a3.656 3.656 0 0 1-3.65 3.653h-19.211c-2.02 0-3.65-1.65-3.65-3.653v-55.38a3.65 3.65 0 0 1 3.65-3.644h6.568v-4.44c-4.27-.375-7.838-3.586-8.315-7.969l-6.675-59.875a55.406 55.406 0 0 0-2.553-.732v62.295l.296 90.321c.48 6.04-4 11.318-10.072 11.798a10.01 10.01 0 0 1-.885.036c-5.669 0-10.457-4.35-10.945-10.073l.412-81.628c-1.375.596-2.85.935-4.422.935a11.07 11.07 0 0 1-4.437-.935l.412 81.628C104.63 338.649 99.813 343 94.144 343c-.292 0-.594-.008-.895-.036-6.035-.48-10.56-5.758-10.079-11.798l.303-90.321v-62.292l-2.56.732-6.65 59.875c-.514 4.662-4.513 8.11-9.075 8.11-.35 0-.71-.025-1.043-.061-5.02-.56-8.655-5.073-8.086-10.082l7.318-65.713c.06-.428.29-.767.383-1.186.194-.687.331-1.35.64-1.979.257-.443.569-.79.871-1.173.422-.554.807-1.11 1.373-1.56.392-.34.87-.541 1.3-.803.484-.285.878-.668 1.427-.856.837-.303 19.22-6.895 36.186-7.76l2.38 4.636-6.152 47.882 7.327 12.751 7.314-12.751-6.077-47.879 2.316-4.635c16.93.865 35.352 7.455 36.187 7.758.53.187.908.562 1.389.837.438.274.933.483 1.364.821.523.439.899.978 1.319 1.525.312.4.642.766.889 1.233.32.613.438 1.258.629 1.935.101.41.331.767.374 1.212l7.347 65.723c.375 3.354-1.23 6.39-3.782 8.262v6.16h6.543z"/>
        <filter id="a" width="148%" height="122.5%" x="-24%" y="-13.8%" filterUnits="objectBoundingBox">
            <feOffset dy="-6" in="SourceAlpha" result="shadowOffsetOuter1"/>
            <feGaussianBlur in="shadowOffsetOuter1" result="shadowBlurOuter1" stdDeviation="8"/>
            <feColorMatrix in="shadowBlurOuter1" values="0 0 0 0 0 0 0 0 0 0 0 0 0 0 0 0 0 0 0.267351676 0"/>
        </filter>
    </defs>
    <g fill="none" fill-rule="evenodd">
        <g fill-rule="nonzero">
            <use fill="#000" filter="url(#a)" xlink:href="#b"/>
            <use fill="#FFF" fill-rule="evenodd" xlink:href="#b"/>
        </g>
        <g transform="translate(141)">
            <path stroke="#0072FF" stroke-linecap="square" d="M4.5 102.5h23.195"/>
            <circle cx="2.5" cy="102.5" r="2.5" fill="#0072FF"/>
            <path stroke="#0072FF" stroke-linecap="square" d="M28.5 102.5V40.299"/>
            <path fill="#0072FF" d="M35.397 8.744l-6.446 6.367a.771.771 0 0 1-.543.222.771.771 0 0 1-.543-.222l-3.985-3.936a.755.755 0 0 1 0-1.074l.79-.781a.775.775 0 0 1 1.087 0l2.651 2.618 5.111-5.049a.774.774 0 0 1 1.087 0l.79.782c.3.296.3.777 0 1.073m4.028-6.032L29.847.029a.767.767 0 0 0-.418 0l-9.577 2.683a.782.782 0 0 0-.563.647c-.056.402-1.322 9.908 1.928 14.636 3.246 4.723 8.036 5.934 8.238 5.983a.8.8 0 0 0 .366 0c.203-.05 4.992-1.26 8.238-5.983 3.25-4.728 1.983-14.234 1.928-14.636a.783.783 0 0 0-.563-.647z"/>
            <text fill="#0072FF" font-family="SFUIDisplay-Semibold, SF UI Display" font-size="16" font-weight="500" letter-spacing=".5">
                <tspan x="51" y="19">Certificates</tspan>
            </text>
        </g>
        <g transform="translate(0 38)">
            <path stroke="#0072FF" stroke-linecap="square" d="M42.5 134.5H9.364"/>
            <circle cx="42.5" cy="134.5" r="2.5" fill="#0072FF"/>
            <path stroke="#0072FF" stroke-linecap="square" d="M9.5 134.5V37.48"/>
            <path fill="#0072FF" d="M16.397 8.744L9.95 15.111a.771.771 0 0 1-.543.222.771.771 0 0 1-.543-.222L4.88 11.175a.755.755 0 0 1 0-1.074l.79-.781a.775.775 0 0 1 1.087 0l2.651 2.618 5.111-5.049a.774.774 0 0 1 1.087 0l.79.782c.3.296.3.777 0 1.073m4.028-6.032L10.847.029a.767.767 0 0 0-.418 0L.852 2.712a.782.782 0 0 0-.563.647c-.056.402-1.322 9.908 1.928 14.636 3.246 4.723 8.036 5.934 8.238 5.983a.8.8 0 0 0 .366 0c.203-.05 4.992-1.26 8.238-5.983 3.25-4.728 1.983-14.234 1.928-14.636a.783.783 0 0 0-.563-.647z"/>
            <text fill="#0072FF" font-family="SFUIDisplay-Semibold, SF UI Display" font-size="16" font-weight="500" letter-spacing=".5">
                <tspan x="32" y="19">Personal</tspan>
            </text>
        </g>
        <g transform="translate(185 133)">
            <path stroke="#0072FF" stroke-linecap="square" d="M2.5 143.5h34"/>
            <circle cx="2.5" cy="143.5" r="2.5" fill="#0072FF"/>
            <path stroke="#0072FF" stroke-linecap="square" d="M36.5 143.5V38.424"/>
            <path fill="#0072FF" d="M42.397 8.744l-6.446 6.367a.771.771 0 0 1-.543.222.771.771 0 0 1-.543-.222l-3.985-3.936a.755.755 0 0 1 0-1.074l.79-.781a.775.775 0 0 1 1.087 0l2.651 2.618 5.111-5.049a.774.774 0 0 1 1.087 0l.79.782c.3.296.3.777 0 1.073m4.028-6.032L36.847.029a.767.767 0 0 0-.418 0l-9.577 2.683a.782.782 0 0 0-.563.647c-.056.402-1.322 9.908 1.928 14.636 3.246 4.723 8.036 5.934 8.238 5.983a.8.8 0 0 0 .366 0c.203-.05 4.992-1.26 8.238-5.983 3.25-4.728 1.983-14.234 1.928-14.636a.783.783 0 0 0-.563-.647z"/>
            <text fill="#0072FF" font-family="SFUIDisplay-Semibold, SF UI Display" font-size="16" font-weight="500" letter-spacing=".5">
                <tspan x="59" y="19">Works</tspan>
            </text>
        </g>
    </g>
</svg>
