<svg xmlns="http://www.w3.org/2000/svg" width="183" height="24" viewBox="0 0 183 24">
    <g fill="none" fill-rule="evenodd">
        <ellipse cx="11.117" cy="12.136" fill="#0072FF" rx="6.816" ry="6.565"/>
        <path fill="#FFF" d="M16.397 8.744L9.95 15.111a.771.771 0 0 1-.543.222.771.771 0 0 1-.543-.222L4.88 11.175a.755.755 0 0 1 0-1.074l.79-.781a.775.775 0 0 1 1.087 0l2.651 2.618 5.111-5.049a.774.774 0 0 1 1.087 0l.79.782c.3.296.3.777 0 1.073m4.028-6.032L10.847.029a.767.767 0 0 0-.418 0L.852 2.712a.782.782 0 0 0-.563.647c-.056.402-1.322 9.908 1.928 14.636 3.246 4.723 8.036 5.934 8.238 5.983a.8.8 0 0 0 .366 0c.203-.05 4.992-1.26 8.238-5.983 3.25-4.728 1.983-14.234 1.928-14.636a.783.783 0 0 0-.563-.647zM42.224 20.463l-1.055-3.678h-5.473l-1.067 3.678h-4.337L35.916 3.72h5.207l5.624 16.744h-4.523zM38.386 7.27l-1.867 6.452h3.815L38.48 7.27h-.093zm22.527 13.194L66.247 3.72h-4.662l-3.212 12.578h-.093L55.057 3.72H50.22l5.334 16.744h5.358zm23.153-3.435h-7.213v-3.411h6.784v-3.133h-6.784v-3.33h7.213V3.718h-11.47v16.744h11.47v-3.435zM95.472 6.933v4.758h2.493c1.565 0 2.493-.917 2.493-2.368 0-1.427-.986-2.39-2.505-2.39h-2.481zm0 7.67v5.86h-4.256V3.72h7.166c4.175 0 6.424 2.065 6.424 5.523 0 2.054-1.032 3.934-2.864 4.735l3.352 6.486h-4.778l-2.876-5.86h-2.168zm15.673 1.01c.046 3.249 2.679 5.14 6.946 5.14 4.314 0 7.062-2.123 7.062-5.454 0-2.645-1.484-4.142-4.79-4.78l-2.168-.407c-1.75-.36-2.493-.858-2.493-1.763 0-1.021.986-1.695 2.47-1.695 1.53 0 2.656.732 2.737 1.95h3.92c-.047-3.145-2.517-5.175-6.703-5.175-3.873 0-6.656 2.088-6.656 5.337 0 2.542 1.588 4.213 4.673 4.804l2.192.43c1.901.394 2.609.847 2.609 1.775 0 1.01-1.079 1.752-2.737 1.752-1.577 0-2.864-.765-3.015-1.914h-4.047zm31.224 4.85l-1.055-3.678h-5.474l-1.067 3.678h-4.337L136.06 3.72h5.207l5.624 16.744h-4.522zM138.53 7.27l-1.867 6.452h3.816l-1.856-6.452h-.093zm18.967 13.194V14.22h6.482v-3.26h-6.482V7.153h7.132V3.72H153.24v16.744h4.256zm25.229-3.435h-7.213v-3.411h6.784v-3.133h-6.784v-3.33h7.213V3.718h-11.469v16.744h11.469v-3.435z"/>
    </g>
</svg>
