<svg xmlns="http://www.w3.org/2000/svg" width="24" height="21" viewBox="0 0 24 21">
    <path fill="#FFF" fill-rule="nonzero" d="M.424 10.052l5.53 2.064 2.14 6.883a.651.651 0 0 0 1.034.312l3.083-2.513a.92.92 0 0 1 1.121-.032l5.56 4.037a.652.652 0 0 0 1.021-.394L23.986.818a.652.652 0 0 0-.873-.741L.417 8.832a.652.652 0 0 0 .007 1.22zm7.326.965L18.557 4.36c.195-.119.394.144.228.298l-8.92 8.292a1.849 1.849 0 0 0-.573 1.106l-.304 2.252c-.04.3-.462.33-.545.04L7.274 12.24a1.088 1.088 0 0 1 .476-1.224z"/>
</svg>
