<svg xmlns="http://www.w3.org/2000/svg" width="59" height="67" viewBox="0 0 59 67">
    <g fill="none" fill-rule="evenodd">
        <circle cx="29.5" cy="29.5" r="19.5" fill="#FFF"/>
        <path fill="#0072FF" d="M45.47 24.411L27.596 42.186c-.415.412-.96.62-1.507.62a2.131 2.131 0 0 1-1.506-.62L13.53 31.196a2.114 2.114 0 0 1-.625-1.498c0-.561.225-1.1.625-1.498l2.195-2.182a2.14 2.14 0 0 1 3.013 0l7.35 7.309 14.173-14.094a2.138 2.138 0 0 1 3.014 0l2.194 2.182c.832.827.832 2.17 0 2.996M56.638 7.57L30.079.08a2.112 2.112 0 0 0-1.158 0L2.362 7.57a2.18 2.18 0 0 0-1.56 1.808C.647 10.5-2.865 37.037 6.147 50.238 15.15 63.421 28.433 66.8 28.992 66.938a2.178 2.178 0 0 0 1.015 0c.562-.138 13.843-3.517 22.846-16.702 9.014-13.2 5.499-39.737 5.345-40.86a2.182 2.182 0 0 0-1.56-1.807z"/>
    </g>
</svg>
