<svg xmlns="http://www.w3.org/2000/svg" width="24" height="20" viewBox="0 0 24 20">
    <path fill="#FFF" fill-rule="nonzero" d="M23.953 2.35a9.826 9.826 0 0 1-2.822.773A4.93 4.93 0 0 0 23.29.404a9.838 9.838 0 0 1-3.12 1.193 4.914 4.914 0 0 0-8.374 4.482A13.952 13.952 0 0 1 1.667.944a4.891 4.891 0 0 0-.665 2.47c0 1.706.868 3.21 2.187 4.091A4.894 4.894 0 0 1 .963 6.89v.062a4.917 4.917 0 0 0 3.941 4.819 4.924 4.924 0 0 1-2.219.084 4.92 4.92 0 0 0 4.59 3.413 9.86 9.86 0 0 1-6.103 2.104c-.396 0-.787-.024-1.172-.07a13.909 13.909 0 0 0 7.533 2.209c9.04 0 13.982-7.488 13.982-13.982 0-.213-.005-.425-.014-.636a9.984 9.984 0 0 0 2.452-2.544z"/>
</svg>
